<mxfile host="app.diagrams.net" agent="Mozilla/5.0 (Windows NT 10.0; Win64; x64) AppleWebKit/537.36 (KHTML, like Gecko) Chrome/131.0.0.0 Safari/537.36" version="26.0.9">
  <diagram name="Page-1" id="LMYDNfDcWkgAOi8U8WU0">
    <mxGraphModel dx="1050" dy="569" grid="1" gridSize="10" guides="1" tooltips="1" connect="1" arrows="1" fold="1" page="1" pageScale="1" pageWidth="827" pageHeight="1169" math="0" shadow="0">
      <root>
        <mxCell id="0" />
        <mxCell id="1" parent="0" />
        <mxCell id="XKa-oyLKF1oneIkAn2bW-17" value="Enter ID" style="html=1;verticalAlign=bottom;endArrow=block;curved=0;rounded=0;entryX=0;entryY=0;entryDx=0;entryDy=5;entryPerimeter=0;" parent="1" edge="1">
          <mxGeometry width="80" relative="1" as="geometry">
            <mxPoint x="94" y="155" as="sourcePoint" />
            <mxPoint x="220" y="155" as="targetPoint" />
          </mxGeometry>
        </mxCell>
        <mxCell id="XKa-oyLKF1oneIkAn2bW-18" value="Enter DOB" style="html=1;verticalAlign=bottom;endArrow=block;curved=0;rounded=0;" parent="1" source="XKa-oyLKF1oneIkAn2bW-75" edge="1">
          <mxGeometry width="80" relative="1" as="geometry">
            <mxPoint x="100" y="180" as="sourcePoint" />
            <mxPoint x="220" y="200" as="targetPoint" />
          </mxGeometry>
        </mxCell>
        <mxCell id="XKa-oyLKF1oneIkAn2bW-21" value="Credentials(ID,DOB)" style="html=1;verticalAlign=bottom;endArrow=block;curved=0;rounded=0;" parent="1" edge="1">
          <mxGeometry width="80" relative="1" as="geometry">
            <mxPoint x="230" y="190" as="sourcePoint" />
            <mxPoint x="400" y="190" as="targetPoint" />
          </mxGeometry>
        </mxCell>
        <mxCell id="XKa-oyLKF1oneIkAn2bW-23" value="Verify(ID,DOB)" style="html=1;verticalAlign=bottom;endArrow=block;curved=0;rounded=0;exitX=1;exitY=1;exitDx=0;exitDy=-5;exitPerimeter=0;" parent="1" edge="1">
          <mxGeometry width="80" relative="1" as="geometry">
            <mxPoint x="419" y="225" as="sourcePoint" />
            <mxPoint x="570" y="225" as="targetPoint" />
          </mxGeometry>
        </mxCell>
        <mxCell id="XKa-oyLKF1oneIkAn2bW-36" value="" style="endArrow=block;dashed=1;endFill=1;endSize=6;html=1;rounded=0;entryX=1.211;entryY=0.11;entryDx=0;entryDy=0;entryPerimeter=0;" parent="1" edge="1">
          <mxGeometry width="160" relative="1" as="geometry">
            <mxPoint x="570" y="279.99999999999994" as="sourcePoint" />
            <mxPoint x="232.1099999999999" y="279.99999999999994" as="targetPoint" />
          </mxGeometry>
        </mxCell>
        <mxCell id="XKa-oyLKF1oneIkAn2bW-38" value="Status Verified" style="edgeLabel;html=1;align=center;verticalAlign=middle;resizable=0;points=[];" parent="XKa-oyLKF1oneIkAn2bW-36" vertex="1" connectable="0">
          <mxGeometry x="0.1306" y="2" relative="1" as="geometry">
            <mxPoint x="-39" y="-12" as="offset" />
          </mxGeometry>
        </mxCell>
        <mxCell id="XKa-oyLKF1oneIkAn2bW-39" value="" style="endArrow=block;dashed=1;endFill=1;endSize=5;html=1;rounded=0;entryX=0.6;entryY=0.286;entryDx=0;entryDy=0;entryPerimeter=0;" parent="1" edge="1">
          <mxGeometry width="160" relative="1" as="geometry">
            <mxPoint x="210" y="290" as="sourcePoint" />
            <mxPoint x="95" y="290.15999999999997" as="targetPoint" />
          </mxGeometry>
        </mxCell>
        <mxCell id="XKa-oyLKF1oneIkAn2bW-42" value="Notify(OK)" style="edgeLabel;html=1;align=center;verticalAlign=middle;resizable=0;points=[];" parent="XKa-oyLKF1oneIkAn2bW-39" vertex="1" connectable="0">
          <mxGeometry x="0.1309" y="-2" relative="1" as="geometry">
            <mxPoint as="offset" />
          </mxGeometry>
        </mxCell>
        <mxCell id="XKa-oyLKF1oneIkAn2bW-43" value="" style="html=1;verticalAlign=bottom;endArrow=block;curved=0;rounded=0;" parent="1" edge="1">
          <mxGeometry width="80" relative="1" as="geometry">
            <mxPoint x="96" y="339" as="sourcePoint" />
            <mxPoint x="220" y="339" as="targetPoint" />
          </mxGeometry>
        </mxCell>
        <mxCell id="XKa-oyLKF1oneIkAn2bW-45" value="&lt;span style=&quot;font-weight: normal;&quot;&gt;&lt;font style=&quot;font-size: 10px;&quot;&gt;Enter Id for Blockchain&lt;/font&gt;&lt;/span&gt;&lt;div&gt;&lt;span style=&quot;font-weight: normal;&quot;&gt;&lt;font style=&quot;font-size: 10px;&quot;&gt;Registration&lt;/font&gt;&lt;/span&gt;&lt;/div&gt;" style="text;align=center;fontStyle=1;verticalAlign=middle;spacingLeft=3;spacingRight=3;strokeColor=none;rotatable=0;points=[[0,0.5],[1,0.5]];portConstraint=eastwest;html=1;" parent="1" vertex="1">
          <mxGeometry x="110" y="310" width="80" height="26" as="geometry" />
        </mxCell>
        <mxCell id="XKa-oyLKF1oneIkAn2bW-48" value="Check ID with previous&amp;nbsp;&lt;div&gt;entry&lt;/div&gt;" style="html=1;verticalAlign=bottom;endArrow=block;curved=0;rounded=0;" parent="1" edge="1">
          <mxGeometry width="80" relative="1" as="geometry">
            <mxPoint x="220" y="359.5" as="sourcePoint" />
            <mxPoint x="404" y="359.5" as="targetPoint" />
          </mxGeometry>
        </mxCell>
        <mxCell id="XKa-oyLKF1oneIkAn2bW-49" value="Register ID" style="html=1;verticalAlign=bottom;endArrow=block;curved=0;rounded=0;exitX=1.278;exitY=0.833;exitDx=0;exitDy=0;exitPerimeter=0;" parent="1" target="XKa-oyLKF1oneIkAn2bW-53" edge="1">
          <mxGeometry x="0.4375" y="10" width="80" relative="1" as="geometry">
            <mxPoint x="416.78" y="386.6400000000001" as="sourcePoint" />
            <mxPoint x="530" y="380" as="targetPoint" />
            <mxPoint as="offset" />
          </mxGeometry>
        </mxCell>
        <mxCell id="XKa-oyLKF1oneIkAn2bW-53" value="" style="html=1;points=[[0,0,0,0,5],[0,1,0,0,-5],[1,0,0,0,5],[1,1,0,0,-5]];perimeter=orthogonalPerimeter;outlineConnect=0;targetShapes=umlLifeline;portConstraint=eastwest;newEdgeStyle={&quot;curved&quot;:0,&quot;rounded&quot;:0};" parent="1" vertex="1">
          <mxGeometry x="750" y="346" width="10" height="194" as="geometry" />
        </mxCell>
        <mxCell id="XKa-oyLKF1oneIkAn2bW-60" value="Enter ID to vote" style="html=1;verticalAlign=bottom;endArrow=block;curved=0;rounded=0;" parent="1" edge="1">
          <mxGeometry x="0.2066" width="80" relative="1" as="geometry">
            <mxPoint x="94" y="459.5" as="sourcePoint" />
            <mxPoint x="219" y="459.5" as="targetPoint" />
            <mxPoint as="offset" />
          </mxGeometry>
        </mxCell>
        <mxCell id="XKa-oyLKF1oneIkAn2bW-64" value="" style="endArrow=blockThin;dashed=1;endFill=1;html=1;rounded=0;" parent="1" edge="1">
          <mxGeometry width="160" relative="1" as="geometry">
            <mxPoint x="750" y="410" as="sourcePoint" />
            <mxPoint x="230" y="410" as="targetPoint" />
          </mxGeometry>
        </mxCell>
        <mxCell id="XKa-oyLKF1oneIkAn2bW-65" value="Notify(registered)" style="edgeLabel;html=1;align=center;verticalAlign=middle;resizable=0;points=[];" parent="XKa-oyLKF1oneIkAn2bW-64" vertex="1" connectable="0">
          <mxGeometry x="0.3307" y="1" relative="1" as="geometry">
            <mxPoint as="offset" />
          </mxGeometry>
        </mxCell>
        <mxCell id="XKa-oyLKF1oneIkAn2bW-66" value="" style="html=1;verticalAlign=bottom;endArrow=block;curved=0;rounded=0;" parent="1" edge="1">
          <mxGeometry width="80" relative="1" as="geometry">
            <mxPoint x="94" y="480.04" as="sourcePoint" />
            <mxPoint x="220" y="480" as="targetPoint" />
            <Array as="points">
              <mxPoint x="120" y="480" />
              <mxPoint x="140" y="480" />
            </Array>
          </mxGeometry>
        </mxCell>
        <mxCell id="XKa-oyLKF1oneIkAn2bW-70" value="" style="endArrow=block;dashed=1;endFill=1;endSize=6;html=1;rounded=0;" parent="1" edge="1">
          <mxGeometry width="160" relative="1" as="geometry">
            <mxPoint x="220" y="430" as="sourcePoint" />
            <mxPoint x="100" y="430" as="targetPoint" />
          </mxGeometry>
        </mxCell>
        <mxCell id="XKa-oyLKF1oneIkAn2bW-71" value="Message(OK)" style="edgeLabel;html=1;align=center;verticalAlign=middle;resizable=0;points=[];" parent="XKa-oyLKF1oneIkAn2bW-70" vertex="1" connectable="0">
          <mxGeometry x="0.1306" y="2" relative="1" as="geometry">
            <mxPoint x="8" y="-22" as="offset" />
          </mxGeometry>
        </mxCell>
        <mxCell id="XKa-oyLKF1oneIkAn2bW-74" value="&lt;span style=&quot;text-wrap-mode: wrap;&quot;&gt;Voter&lt;/span&gt;" style="text;html=1;align=center;verticalAlign=middle;resizable=0;points=[];autosize=1;strokeColor=none;fillColor=none;" parent="1" vertex="1">
          <mxGeometry x="64" y="100" width="50" height="30" as="geometry" />
        </mxCell>
        <mxCell id="XKa-oyLKF1oneIkAn2bW-75" value="" style="shape=umlLifeline;perimeter=lifelinePerimeter;whiteSpace=wrap;html=1;container=1;dropTarget=0;collapsible=0;recursiveResize=0;outlineConnect=0;portConstraint=eastwest;newEdgeStyle={&quot;curved&quot;:0,&quot;rounded&quot;:0};participant=umlActor;size=50;" parent="1" vertex="1">
          <mxGeometry x="79" y="40" width="21" height="940" as="geometry" />
        </mxCell>
        <mxCell id="XFnyQsspHM3zp6jLxVKl-1" value="" style="html=1;points=[[0,0,0,0,5],[0,1,0,0,-5],[1,0,0,0,5],[1,1,0,0,-5]];perimeter=orthogonalPerimeter;outlineConnect=0;targetShapes=umlLifeline;portConstraint=eastwest;newEdgeStyle={&quot;curved&quot;:0,&quot;rounded&quot;:0};" parent="XKa-oyLKF1oneIkAn2bW-75" vertex="1">
          <mxGeometry x="5.5" y="80" width="10" height="860" as="geometry" />
        </mxCell>
        <mxCell id="XKa-oyLKF1oneIkAn2bW-77" value="ALT" style="shape=umlFrame;whiteSpace=wrap;html=1;pointerEvents=0;" parent="1" vertex="1">
          <mxGeometry x="60" y="550" width="730" height="340" as="geometry" />
        </mxCell>
        <mxCell id="XKa-oyLKF1oneIkAn2bW-82" value="ALT" style="shape=umlFrame;whiteSpace=wrap;html=1;pointerEvents=0;" parent="1" vertex="1">
          <mxGeometry x="70" y="630" width="710" height="240" as="geometry" />
        </mxCell>
        <mxCell id="XKa-oyLKF1oneIkAn2bW-83" value="" style="endArrow=block;dashed=1;endFill=1;endSize=6;html=1;rounded=0;entryX=1.007;entryY=0;entryDx=0;entryDy=0;entryPerimeter=0;" parent="1" target="XKa-oyLKF1oneIkAn2bW-87" edge="1">
          <mxGeometry width="160" relative="1" as="geometry">
            <mxPoint x="380" y="688.89" as="sourcePoint" />
            <mxPoint x="220" y="688.89" as="targetPoint" />
            <Array as="points">
              <mxPoint x="400" y="690" />
            </Array>
          </mxGeometry>
        </mxCell>
        <mxCell id="XKa-oyLKF1oneIkAn2bW-84" value="Notify(ID Not Matched)" style="edgeLabel;html=1;align=center;verticalAlign=middle;resizable=0;points=[];" parent="XKa-oyLKF1oneIkAn2bW-83" vertex="1" connectable="0">
          <mxGeometry x="0.3307" y="1" relative="1" as="geometry">
            <mxPoint x="17" y="-20" as="offset" />
          </mxGeometry>
        </mxCell>
        <mxCell id="XKa-oyLKF1oneIkAn2bW-85" value="" style="endArrow=block;dashed=1;endFill=1;endSize=6;html=1;rounded=0;" parent="1" edge="1">
          <mxGeometry width="160" relative="1" as="geometry">
            <mxPoint x="220" y="720" as="sourcePoint" />
            <mxPoint x="99" y="720" as="targetPoint" />
          </mxGeometry>
        </mxCell>
        <mxCell id="XKa-oyLKF1oneIkAn2bW-87" value="&lt;span style=&quot;font-size: 11px; background-color: rgb(255, 255, 255);&quot;&gt;Message(ID not matched)&lt;/span&gt;" style="text;html=1;align=center;verticalAlign=middle;resizable=0;points=[];autosize=1;strokeColor=none;fillColor=none;" parent="1" vertex="1">
          <mxGeometry x="79" y="690" width="150" height="30" as="geometry" />
        </mxCell>
        <mxCell id="XKa-oyLKF1oneIkAn2bW-88" value="" style="endArrow=block;dashed=1;endFill=1;endSize=6;html=1;rounded=0;" parent="1" edge="1">
          <mxGeometry width="160" relative="1" as="geometry">
            <mxPoint x="408.5" y="583" as="sourcePoint" />
            <mxPoint x="229" y="583" as="targetPoint" />
          </mxGeometry>
        </mxCell>
        <mxCell id="XKa-oyLKF1oneIkAn2bW-89" value="Notify(ID or DOB not matched)" style="edgeLabel;html=1;align=center;verticalAlign=middle;resizable=0;points=[];" parent="XKa-oyLKF1oneIkAn2bW-88" vertex="1" connectable="0">
          <mxGeometry x="0.3307" y="1" relative="1" as="geometry">
            <mxPoint x="17" y="-20" as="offset" />
          </mxGeometry>
        </mxCell>
        <mxCell id="XKa-oyLKF1oneIkAn2bW-93" value="" style="endArrow=block;dashed=1;endFill=1;endSize=6;html=1;rounded=0;" parent="1" edge="1">
          <mxGeometry width="160" relative="1" as="geometry">
            <mxPoint x="220" y="610" as="sourcePoint" />
            <mxPoint x="94" y="610" as="targetPoint" />
          </mxGeometry>
        </mxCell>
        <mxCell id="XKa-oyLKF1oneIkAn2bW-97" value="&lt;span style=&quot;color: rgb(0, 0, 0); font-family: Helvetica; font-size: 11px; font-style: normal; font-variant-ligatures: normal; font-variant-caps: normal; font-weight: 400; letter-spacing: normal; orphans: 2; text-align: center; text-indent: 0px; text-transform: none; widows: 2; word-spacing: 0px; -webkit-text-stroke-width: 0px; white-space: nowrap; background-color: rgb(255, 255, 255); text-decoration-thickness: initial; text-decoration-style: initial; text-decoration-color: initial; float: none; display: inline !important;&quot;&gt;Message(ID or DOB not matched)&lt;/span&gt;" style="text;whiteSpace=wrap;html=1;" parent="1" vertex="1">
          <mxGeometry x="94" y="585" width="116" height="40" as="geometry" />
        </mxCell>
        <mxCell id="XKa-oyLKF1oneIkAn2bW-106" value="ALT" style="shape=umlFrame;whiteSpace=wrap;html=1;pointerEvents=0;" parent="1" vertex="1">
          <mxGeometry x="80" y="750" width="690" height="90" as="geometry" />
        </mxCell>
        <mxCell id="XKa-oyLKF1oneIkAn2bW-107" value="" style="html=1;points=[[0,0,0,0,5],[0,1,0,0,-5],[1,0,0,0,5],[1,1,0,0,-5]];perimeter=orthogonalPerimeter;outlineConnect=0;targetShapes=umlLifeline;portConstraint=eastwest;newEdgeStyle={&quot;curved&quot;:0,&quot;rounded&quot;:0};" parent="1" vertex="1">
          <mxGeometry x="750" y="750" width="10" height="80" as="geometry" />
        </mxCell>
        <mxCell id="XKa-oyLKF1oneIkAn2bW-108" value="" style="endArrow=block;dashed=1;endFill=1;endSize=6;html=1;rounded=0;exitX=0;exitY=0.897;exitDx=0;exitDy=0;exitPerimeter=0;" parent="1" edge="1">
          <mxGeometry width="160" relative="1" as="geometry">
            <mxPoint x="747" y="800" as="sourcePoint" />
            <mxPoint x="230" y="800" as="targetPoint" />
          </mxGeometry>
        </mxCell>
        <mxCell id="XKa-oyLKF1oneIkAn2bW-109" value="Notify(ID invalid)" style="edgeLabel;html=1;align=center;verticalAlign=middle;resizable=0;points=[];" parent="XKa-oyLKF1oneIkAn2bW-108" vertex="1" connectable="0">
          <mxGeometry x="0.3307" y="1" relative="1" as="geometry">
            <mxPoint x="4" y="-11" as="offset" />
          </mxGeometry>
        </mxCell>
        <mxCell id="SihQ8ie_81nJS0T04cFK-2" value="" style="endArrow=block;dashed=1;endFill=1;endSize=6;html=1;rounded=0;entryX=1.007;entryY=0;entryDx=0;entryDy=0;entryPerimeter=0;" parent="1" edge="1">
          <mxGeometry width="160" relative="1" as="geometry">
            <mxPoint x="220" y="830.0000000000001" as="sourcePoint" />
            <mxPoint x="94" y="830" as="targetPoint" />
            <Array as="points" />
          </mxGeometry>
        </mxCell>
        <mxCell id="SihQ8ie_81nJS0T04cFK-3" value="Message(ID Not Matched)" style="edgeLabel;html=1;align=center;verticalAlign=middle;resizable=0;points=[];" parent="SihQ8ie_81nJS0T04cFK-2" vertex="1" connectable="0">
          <mxGeometry x="0.3307" y="1" relative="1" as="geometry">
            <mxPoint x="24" y="-12" as="offset" />
          </mxGeometry>
        </mxCell>
        <mxCell id="SihQ8ie_81nJS0T04cFK-9" value="" style="endArrow=classic;html=1;rounded=0;exitX=1;exitY=1;exitDx=0;exitDy=-5;exitPerimeter=0;" parent="1" edge="1">
          <mxGeometry width="50" height="50" relative="1" as="geometry">
            <mxPoint x="230" y="488" as="sourcePoint" />
            <mxPoint x="750" y="488" as="targetPoint" />
          </mxGeometry>
        </mxCell>
        <mxCell id="SihQ8ie_81nJS0T04cFK-11" value="Vote (OK)&amp;nbsp;" style="text;html=1;align=center;verticalAlign=middle;resizable=0;points=[];autosize=1;strokeColor=none;fillColor=none;" parent="1" vertex="1">
          <mxGeometry x="430" y="460" width="80" height="30" as="geometry" />
        </mxCell>
        <mxCell id="SihQ8ie_81nJS0T04cFK-13" value="Vote()" style="text;html=1;align=center;verticalAlign=middle;resizable=0;points=[];autosize=1;strokeColor=none;fillColor=none;" parent="1" vertex="1">
          <mxGeometry x="130" y="458" width="60" height="30" as="geometry" />
        </mxCell>
        <mxCell id="SihQ8ie_81nJS0T04cFK-14" value="" style="endArrow=block;dashed=1;endFill=1;endSize=6;html=1;rounded=0;exitX=0;exitY=0.897;exitDx=0;exitDy=0;exitPerimeter=0;" parent="1" edge="1">
          <mxGeometry width="160" relative="1" as="geometry">
            <mxPoint x="750" y="510" as="sourcePoint" />
            <mxPoint x="233" y="510" as="targetPoint" />
          </mxGeometry>
        </mxCell>
        <mxCell id="SihQ8ie_81nJS0T04cFK-15" value="Notify(Vote Status)" style="edgeLabel;html=1;align=center;verticalAlign=middle;resizable=0;points=[];" parent="SihQ8ie_81nJS0T04cFK-14" vertex="1" connectable="0">
          <mxGeometry x="0.3307" y="1" relative="1" as="geometry">
            <mxPoint x="4" y="-11" as="offset" />
          </mxGeometry>
        </mxCell>
        <mxCell id="SihQ8ie_81nJS0T04cFK-17" value="" style="endArrow=block;dashed=1;endFill=1;endSize=6;html=1;rounded=0;entryX=1.007;entryY=0;entryDx=0;entryDy=0;entryPerimeter=0;" parent="1" edge="1">
          <mxGeometry width="160" relative="1" as="geometry">
            <mxPoint x="220" y="530" as="sourcePoint" />
            <mxPoint x="94" y="530" as="targetPoint" />
            <Array as="points" />
          </mxGeometry>
        </mxCell>
        <mxCell id="SihQ8ie_81nJS0T04cFK-18" value="Message(Voted)" style="edgeLabel;html=1;align=center;verticalAlign=middle;resizable=0;points=[];" parent="SihQ8ie_81nJS0T04cFK-17" vertex="1" connectable="0">
          <mxGeometry x="0.3307" y="1" relative="1" as="geometry">
            <mxPoint x="17" y="-20" as="offset" />
          </mxGeometry>
        </mxCell>
        <mxCell id="m6okVOfTwxK6twUnjGJc-4" value="" style="shape=umlLifeline;perimeter=lifelinePerimeter;whiteSpace=wrap;html=1;container=1;dropTarget=0;collapsible=0;recursiveResize=0;outlineConnect=0;portConstraint=eastwest;newEdgeStyle={&quot;curved&quot;:0,&quot;rounded&quot;:0};participant=umlActor;size=50;" parent="1" vertex="1">
          <mxGeometry x="215" y="40" width="20" height="830" as="geometry" />
        </mxCell>
        <mxCell id="XFnyQsspHM3zp6jLxVKl-2" value="" style="html=1;points=[[0,0,0,0,5],[0,1,0,0,-5],[1,0,0,0,5],[1,1,0,0,-5]];perimeter=orthogonalPerimeter;outlineConnect=0;targetShapes=umlLifeline;portConstraint=eastwest;newEdgeStyle={&quot;curved&quot;:0,&quot;rounded&quot;:0};" parent="m6okVOfTwxK6twUnjGJc-4" vertex="1">
          <mxGeometry x="5" y="100" width="10" height="80" as="geometry" />
        </mxCell>
        <mxCell id="XFnyQsspHM3zp6jLxVKl-3" value="" style="html=1;points=[[0,0,0,0,5],[0,1,0,0,-5],[1,0,0,0,5],[1,1,0,0,-5]];perimeter=orthogonalPerimeter;outlineConnect=0;targetShapes=umlLifeline;portConstraint=eastwest;newEdgeStyle={&quot;curved&quot;:0,&quot;rounded&quot;:0};" parent="m6okVOfTwxK6twUnjGJc-4" vertex="1">
          <mxGeometry x="4" y="210" width="10" height="80" as="geometry" />
        </mxCell>
        <mxCell id="m6okVOfTwxK6twUnjGJc-6" value="Database" style="shape=umlLifeline;perimeter=lifelinePerimeter;whiteSpace=wrap;html=1;container=1;dropTarget=0;collapsible=0;recursiveResize=0;outlineConnect=0;portConstraint=eastwest;newEdgeStyle={&quot;curved&quot;:0,&quot;rounded&quot;:0};" parent="1" vertex="1">
          <mxGeometry x="525" y="40" width="100" height="830" as="geometry" />
        </mxCell>
        <mxCell id="m6okVOfTwxK6twUnjGJc-7" value="Blockchain" style="shape=umlLifeline;perimeter=lifelinePerimeter;whiteSpace=wrap;html=1;container=1;dropTarget=0;collapsible=0;recursiveResize=0;outlineConnect=0;portConstraint=eastwest;newEdgeStyle={&quot;curved&quot;:0,&quot;rounded&quot;:0};" parent="1" vertex="1">
          <mxGeometry x="705" y="36" width="100" height="824" as="geometry" />
        </mxCell>
        <mxCell id="m6okVOfTwxK6twUnjGJc-15" value="AS: Authentication" style="shape=umlLifeline;perimeter=lifelinePerimeter;whiteSpace=wrap;html=1;container=1;dropTarget=0;collapsible=0;recursiveResize=0;outlineConnect=0;portConstraint=eastwest;newEdgeStyle={&quot;curved&quot;:0,&quot;rounded&quot;:0};" parent="1" vertex="1">
          <mxGeometry x="364" y="40" width="100" height="830" as="geometry" />
        </mxCell>
        <mxCell id="m6okVOfTwxK6twUnjGJc-21" value="" style="html=1;points=[[0,0,0,0,5],[0,1,0,0,-5],[1,0,0,0,5],[1,1,0,0,-5]];perimeter=orthogonalPerimeter;outlineConnect=0;targetShapes=umlLifeline;portConstraint=eastwest;newEdgeStyle={&quot;curved&quot;:0,&quot;rounded&quot;:0};" parent="m6okVOfTwxK6twUnjGJc-15" vertex="1">
          <mxGeometry x="45" y="314" width="10" height="50" as="geometry" />
        </mxCell>
        <mxCell id="m6okVOfTwxK6twUnjGJc-24" value="" style="html=1;points=[[0,0,0,0,5],[0,1,0,0,-5],[1,0,0,0,5],[1,1,0,0,-5]];perimeter=orthogonalPerimeter;outlineConnect=0;targetShapes=umlLifeline;portConstraint=eastwest;newEdgeStyle={&quot;curved&quot;:0,&quot;rounded&quot;:0};" parent="m6okVOfTwxK6twUnjGJc-15" vertex="1">
          <mxGeometry x="45" y="526" width="10" height="44" as="geometry" />
        </mxCell>
        <mxCell id="rnLgNfncCjdF6pcskwMf-2" value="" style="html=1;points=[[0,0,0,0,5],[0,1,0,0,-5],[1,0,0,0,5],[1,1,0,0,-5]];perimeter=orthogonalPerimeter;outlineConnect=0;targetShapes=umlLifeline;portConstraint=eastwest;newEdgeStyle={&quot;curved&quot;:0,&quot;rounded&quot;:0};" parent="m6okVOfTwxK6twUnjGJc-15" vertex="1">
          <mxGeometry x="45" y="644" width="10" height="44" as="geometry" />
        </mxCell>
        <mxCell id="m6okVOfTwxK6twUnjGJc-25" value="&lt;span style=&quot;font-weight: normal;&quot;&gt;Voting System&lt;/span&gt;" style="text;align=center;fontStyle=1;verticalAlign=middle;spacingLeft=3;spacingRight=3;strokeColor=none;rotatable=0;points=[[0,0.5],[1,0.5]];portConstraint=eastwest;html=1;" parent="1" vertex="1">
          <mxGeometry x="185" y="80" width="80" height="26" as="geometry" />
        </mxCell>
        <mxCell id="rnLgNfncCjdF6pcskwMf-3" value="ID and DOB not matched" style="text;html=1;align=center;verticalAlign=middle;whiteSpace=wrap;rounded=0;" parent="1" vertex="1">
          <mxGeometry x="150" y="540" width="70" height="30" as="geometry" />
        </mxCell>
        <mxCell id="rnLgNfncCjdF6pcskwMf-4" value="ID not matched with inital entry" style="text;html=1;align=center;verticalAlign=middle;whiteSpace=wrap;rounded=0;" parent="1" vertex="1">
          <mxGeometry x="140" y="650" width="80" height="30" as="geometry" />
        </mxCell>
        <mxCell id="rnLgNfncCjdF6pcskwMf-5" value="ID not matched with registered" style="text;html=1;align=center;verticalAlign=middle;whiteSpace=wrap;rounded=0;" parent="1" vertex="1">
          <mxGeometry x="130" y="760" width="90" height="30" as="geometry" />
        </mxCell>
      </root>
    </mxGraphModel>
  </diagram>
</mxfile>
